<svg xmlns="http://www.w3.org/2000/svg" version="1.1" xmlns:xlink="http://www.w3.org/1999/xlink" xmlns:svgjs="http://svgjs.dev/svgjs" width="2000" height="2152" viewBox="0 0 2000 2152"><g transform="matrix(1,0,0,1,1.0992366412214096,-3.0448510638293556)"><svg viewBox="0 0 131 141" data-background-color="#ffffff" preserveAspectRatio="xMidYMid meet" height="2152" width="2000" xmlns="http://www.w3.org/2000/svg" xmlns:xlink="http://www.w3.org/1999/xlink"><g id="tight-bounds" transform="matrix(1,0,0,1,-0.07200000000000273,0.19949999999997203)"><svg viewBox="0 0 131.14390435568953 140.60052000000002" height="140.60052000000002" width="131.14390435568953"><g><svg viewBox="0 0 131.14390435568953 140.60052000000002" height="140.60052000000002" width="131.14390435568953"><g><svg viewBox="0 0 131.14390435568953 140.60052000000002" height="140.60052000000002" width="131.14390435568953"><g><path d="M0 140.601v-140.601h131.144v140.601z" fill="#ffffff" stroke="transparent" stroke-width="0" rx="0%" data-fill-palette-color="tertiary"></path><path d="M3.283 137.317v-134.034h124.578v134.034z" fill="#000000" stroke="transparent" stroke-width="0" rx="0%" data-fill-palette-color="quaternary"></path><path d="M9.85 130.751v-120.901h111.444v120.901z" fill="#ffffff" stroke="transparent" stroke-width="0" data-fill-palette-color="tertiary"></path></g><g transform="matrix(1,0,0,1,19.69973999999999,19.69974)" id="textblocktransform"><svg viewBox="0 0 91.74442435568955 101.20104000000002" height="101.20104000000002" width="91.74442435568955" id="textblock"><g><svg viewBox="0 0 91.74442435568955 101.20104000000002" height="101.20104000000002" width="91.74442435568955"><g transform="matrix(1,0,0,1,0,0)"><svg width="91.74442435568955" viewBox="2.8600001335144043 -32.400001525878906 29.369998931884766 32.400001525878906" height="101.20104000000002" data-palette-color="#ffffff"><path d="M23.97-13.31L13.65-13.31 13.65 0 2.86 0 2.86-32.4 13.65-32.4 13.65-19.56 23.97-19.56 23.97-13.31ZM22.07-26.12L15.36-26.12 15.36-32.4 32.23-32.4 32.23-23.02 22.07-23.02 22.07-26.12ZM32.23 0L15.36 0 15.36-6.47 21.44-6.47 21.44-9.72 32.23-9.72 32.23 0Z" opacity="1" transform="matrix(1,0,0,1,0,0)" fill="#000000" class="undefined-text-0" data-fill-palette-color="quaternary" id="text-0"></path></svg></g></svg></g></svg></g></svg></g><g></g></svg></g><defs></defs></svg><rect width="131.14390435568953" height="140.60052000000002" fill="none" stroke="none" visibility="hidden"></rect></g></svg></g></svg>